<svg xmlns="http://www.w3.org/2000/svg" width="36" height="36" viewBox="0 0 36 36">
  <path fill="#384C54" d="M17.5,13.125 L17.5,1.875 C17.5,0.839452744 16.6601562,0 15.625,0 L3.75,0 C1.67890608,0 0,1.67890668 0,3.75 L0,16.25 C0,18.3210933 1.67890608,20 3.75,20 L16.25,20 C16.9402349,20 17.5,19.4402349 17.5,18.785156 C17.5,18.3273435 17.2419143,17.9445314 16.875,17.726562 L16.875,14.5484376 C17.257812,14.1718745 17.5,13.679688 17.5,13.125 Z M5.58984399,5 L13.089844,5 C13.4687495,5 13.75,5.28125048 13.75,5.625 C13.75,5.96874952 13.4687495,6.25 13.125,6.25 L5.58984399,6.25 C5.28124988,6.25 5,5.96874952 5,5.625 C5,5.28125048 5.28124988,5 5.58984399,5 Z M5.58984399,7.5 L13.089844,7.5 C13.4687495,7.5 13.75,7.78124988 13.75,8.125 C13.75,8.46875012 13.4687495,8.75 13.125,8.75 L5.58984399,8.75 C5.28124988,8.75 5,8.46875012 5,8.125 C5,7.78124988 5.28124988,7.5 5.58984399,7.5 Z M15,17.5 L3.75,17.5 C3.0597657,17.5 2.5,16.9402349 2.5,16.25 C2.5,15.5597651 3.0597657,15 3.75,15 L15,15 L15,17.5 Z" transform="translate(9 8.5)"/>
</svg>
