<svg xmlns="http://www.w3.org/2000/svg" width="36" height="36" viewBox="0 0 36 36">
  <path fill="#FFF" d="M8,1 C8,1.55208333 8.44791667,2 9,2 C9.55208333,2 10,1.55208333 10,1 C10,0.447916667 9.55208333,0 9,0 C8.44791667,0 8,0.447916667 8,1 Z M2,1 C2,0.447916667 1.55208333,0 1,0 C0.447916667,0 0,0.447916667 0,1 C0,1.55208333 0.447916667,2 1,2 C1.55208333,2 2,1.55208333 2,1 Z M6,1 C6,0.447916667 5.55208333,0 5,0 C4.44791667,0 4,0.447916667 4,1 C4,1.55208333 4.44791667,2 5,2 C5.55208333,2 6,1.55208333 6,1 Z" transform="translate(13 17)"/>
</svg>
