<svg xmlns="http://www.w3.org/2000/svg" width="330" height="105"><g fill="none" fill-rule="evenodd"><path fill="#5C6A61" fill-rule="nonzero" d="M2.65 67c1.5-1.75 3.15-1.85 5.1-.5 3.3 2.3 6.8 3.5 10.65 3.5 4 0 6.3-1.6 6.3-4.15 0-2.55-2-4.15-7.95-5.4C5.85 58.15 0 52.2 0 43.55 0 34.55 7.85 28 19.2 28c10.55 0 17.1 5.2 19.65 12.95.8 2.4-.7 3.95-3.2 3.95h-6.8c-2.05 0-2.95-1.05-4.2-2.7-1-1.3-2.55-2-4.55-2-2.85 0-4.95 1.35-4.95 3.55 0 2.3 1.95 4.1 7.6 5.3 11.85 2.5 17.45 8.25 17.45 16.9 0 9.3-8.15 16.25-20.85 16.25-6.75 0-12.85-2.85-18.1-8.4-1.5-1.65-1.45-3.4-.05-5.1L2.65 67Zm39.4-11.9c0-15.2 10.1-27.1 24.35-27.1 6.8 0 12.4 2.6 16.45 6.9v-2.1c0-2.3 1.3-3.6 3.6-3.6h8.6c2.3 0 3.6 1.3 3.6 3.6v44.6c0 2.3-1.3 3.6-3.6 3.6h-8.6c-2.3 0-3.6-1.3-3.6-3.6v-2.1c-4.05 4.3-9.65 6.9-16.45 6.9-14.25 0-24.35-11.9-24.35-27.1Zm15.95 0c0 7.4 5.4 13 12.35 13 7 0 12.5-5.6 12.5-13 0-7.35-5.5-13-12.5-13-6.95 0-12.35 5.65-12.35 13Zm105.85 0c0 15.2-10.15 27.1-24.35 27.1-6.8 0-12.45-2.6-16.45-6.9v25.3c0 2.3-1.3 3.6-3.6 3.6h-8.6c-2.3 0-3.6-1.3-3.6-3.6V32.8c0-2.3 1.3-3.6 3.6-3.6h8.6c2.3 0 3.6 1.3 3.6 3.6v2.1c4-4.3 9.65-6.9 16.45-6.9 14.2 0 24.35 11.9 24.35 27.1Zm-15.95 0c0-7.35-5.45-13-12.4-13s-12.45 5.65-12.45 13c0 7.4 5.5 13 12.45 13 6.95 0 12.4-5.6 12.4-13Zm21.35-43.5c0-2.3 1.3-3.6 3.6-3.6h8.85c2.3 0 3.6 1.3 3.6 3.6v65.8c0 2.3-1.3 3.6-3.6 3.6h-8.85c-2.3 0-3.6-1.3-3.6-3.6V11.6Zm24.8 21.2c0-2.3 1.3-3.6 3.6-3.6h8.85c2.3 0 3.6 1.3 3.6 3.6v44.6c0 2.3-1.3 3.6-3.6 3.6h-8.85c-2.3 0-3.6-1.3-3.6-3.6V32.8ZM249.2 28c11.35 0 19.6 8.25 19.6 20.5v28.9c0 2.3-1.3 3.6-3.6 3.6h-8.85c-2.3 0-3.6-1.3-3.6-3.6V51.05c0-4.65-3.7-8.95-8.35-8.95-5.2 0-9.55 3.8-9.55 10.9v24.4c0 2.3-1.3 3.6-3.6 3.6h-8.85c-2.3 0-3.6-1.3-3.6-3.6V32.8c0-2.3 1.3-3.6 3.6-3.6h8.85c2.3 0 3.6 1.3 3.6 3.6v1.85c3.5-4.25 8.45-6.65 14.35-6.65Zm23.95 27.1c0-15.2 10.1-27.1 24.35-27.1 6.8 0 12.4 2.6 16.45 6.9v-2.1c0-2.3 1.3-3.6 3.6-3.6h8.6c2.3 0 3.6 1.3 3.6 3.6v44.9c0 16.35-10.5 26.5-27.8 26.5-8.45 0-15.85-2.85-22.3-8.75-1.65-1.55-1.65-3.3-.3-5.05l2.25-2.9c1.4-1.8 3.1-1.95 5.05-.6 4 2.7 8.35 4.1 13.5 4.1 8.25 0 13.8-4.5 13.8-12.3v-3.85c-4.05 4.25-9.65 6.85-16.45 6.85-14.25 0-24.35-11.9-24.35-26.6Zm15.95 0c0 7.4 5.4 13 12.35 13 7 0 12.5-5.6 12.5-13 0-7.35-5.5-13-12.5-13-6.95 0-12.35 5.65-12.35 13Z"/><path fill="#4ECF89" d="M213.2 0c.797 0 1.582.05 2.352.148.098.77.148 1.555.148 2.352 0 10.217-8.283 18.5-18.5 18.5-.797 0-1.582-.05-2.352-.148a18.653 18.653 0 0 1-.148-2.352c0-10.217 8.283-18.5 18.5-18.5Z"/></g></svg>
